<?xml version="1.0" encoding="UTF-8" standalone="no"?>
<!DOCTYPE svg PUBLIC "-//W3C//DTD SVG 1.1//EN" "http://www.w3.org/Graphics/SVG/1.1/DTD/svg11.dtd">
<svg width="100%" height="100%" viewBox="0 0 2200 1200" version="1.1" xmlns="http://www.w3.org/2000/svg" xmlns:xlink="http://www.w3.org/1999/xlink" xml:space="preserve" xmlns:serif="http://www.serif.com/" style="fill-rule:evenodd;clip-rule:evenodd;stroke-miterlimit:10;">
    <g id="Arthur-Schnitzler" serif:id="Arthur Schnitzler">
        <g>
            <g transform="matrix(217.317,0,0,217.317,200.886,518.187)">
                <path d="M0.013,-0L0.123,-0C0.143,-0 0.154,-0.012 0.159,-0.024L0.195,-0.104L0.467,-0.104L0.503,-0.025C0.512,-0.006 0.52,-0 0.538,-0L0.649,-0C0.664,-0 0.672,-0.013 0.666,-0.026L0.353,-0.699C0.35,-0.705 0.343,-0.71 0.336,-0.71L0.326,-0.71C0.319,-0.71 0.312,-0.705 0.309,-0.699L-0.004,-0.026C-0.01,-0.013 -0.002,-0 0.013,-0ZM0.255,-0.24L0.33,-0.405L0.331,-0.405L0.407,-0.24L0.255,-0.24Z" style="fill-rule:nonzero;"/>
            </g>
            <g transform="matrix(217.317,0,0,217.317,342.576,518.187)">
                <path d="M0.086,-0.019C0.086,-0.009 0.094,-0 0.105,-0L0.224,-0C0.234,-0 0.243,-0.009 0.243,-0.019L0.243,-0.274L0.312,-0.274L0.445,-0.009C0.447,-0.005 0.453,-0 0.461,-0L0.594,-0C0.611,-0 0.618,-0.016 0.611,-0.029L0.474,-0.283C0.561,-0.318 0.622,-0.392 0.622,-0.484C0.622,-0.603 0.524,-0.7 0.404,-0.7L0.105,-0.7C0.094,-0.7 0.086,-0.691 0.086,-0.681L0.086,-0.019ZM0.243,-0.401L0.243,-0.557L0.391,-0.557C0.432,-0.557 0.467,-0.523 0.467,-0.481C0.467,-0.439 0.432,-0.401 0.391,-0.401L0.243,-0.401Z" style="fill-rule:nonzero;"/>
            </g>
            <g transform="matrix(217.317,0,0,217.317,486.006,518.187)">
                <path d="M0.176,-0.019C0.176,-0.009 0.185,-0 0.195,-0L0.315,-0C0.325,-0 0.334,-0.009 0.334,-0.019L0.334,-0.553L0.477,-0.553C0.488,-0.553 0.496,-0.562 0.496,-0.572L0.496,-0.681C0.496,-0.691 0.488,-0.7 0.477,-0.7L0.033,-0.7C0.022,-0.7 0.014,-0.691 0.014,-0.681L0.014,-0.572C0.014,-0.562 0.022,-0.553 0.033,-0.553L0.176,-0.553L0.176,-0.019Z" style="fill-rule:nonzero;"/>
            </g>
            <g transform="matrix(217.317,0,0,217.317,594.664,518.187)">
                <path d="M0.086,-0.019C0.086,-0.009 0.095,-0 0.105,-0L0.224,-0C0.235,-0 0.243,-0.009 0.243,-0.019L0.243,-0.282L0.529,-0.282L0.529,-0.019C0.529,-0.009 0.537,-0 0.548,-0L0.667,-0C0.677,-0 0.686,-0.009 0.686,-0.019L0.686,-0.681C0.686,-0.691 0.677,-0.7 0.667,-0.7L0.548,-0.7C0.537,-0.7 0.529,-0.691 0.529,-0.681L0.529,-0.429L0.243,-0.429L0.243,-0.681C0.243,-0.691 0.235,-0.7 0.224,-0.7L0.105,-0.7C0.095,-0.7 0.086,-0.691 0.086,-0.681L0.086,-0.019Z" style="fill-rule:nonzero;"/>
            </g>
            <g transform="matrix(217.317,0,0,217.317,760.26,518.187)">
                <path d="M0.076,-0.268C0.076,-0.116 0.203,0.01 0.36,0.01C0.518,0.01 0.646,-0.116 0.646,-0.268L0.646,-0.681C0.646,-0.691 0.637,-0.7 0.627,-0.7L0.504,-0.7C0.493,-0.7 0.485,-0.691 0.485,-0.681L0.485,-0.276C0.485,-0.206 0.432,-0.15 0.36,-0.15C0.289,-0.15 0.237,-0.206 0.237,-0.276L0.237,-0.681C0.237,-0.691 0.229,-0.7 0.218,-0.7L0.095,-0.7C0.085,-0.7 0.076,-0.691 0.076,-0.681L0.076,-0.268Z" style="fill-rule:nonzero;"/>
            </g>
            <g transform="matrix(217.317,0,0,217.317,914.772,518.187)">
                <path d="M0.086,-0.019C0.086,-0.009 0.094,-0 0.105,-0L0.224,-0C0.234,-0 0.243,-0.009 0.243,-0.019L0.243,-0.274L0.312,-0.274L0.445,-0.009C0.447,-0.005 0.453,-0 0.461,-0L0.594,-0C0.611,-0 0.618,-0.016 0.611,-0.029L0.474,-0.283C0.561,-0.318 0.622,-0.392 0.622,-0.484C0.622,-0.603 0.524,-0.7 0.404,-0.7L0.105,-0.7C0.094,-0.7 0.086,-0.691 0.086,-0.681L0.086,-0.019ZM0.243,-0.401L0.243,-0.557L0.391,-0.557C0.432,-0.557 0.467,-0.523 0.467,-0.481C0.467,-0.439 0.432,-0.401 0.391,-0.401L0.243,-0.401Z" style="fill-rule:nonzero;"/>
            </g>
            <g transform="matrix(217.317,0,0,217.317,200.886,712.034)">
                <path d="M0.051,-0.067C0.074,-0.044 0.146,0.01 0.276,0.01C0.423,0.01 0.512,-0.094 0.512,-0.197C0.512,-0.333 0.388,-0.394 0.31,-0.425C0.231,-0.457 0.201,-0.485 0.201,-0.522C0.201,-0.549 0.228,-0.573 0.264,-0.573C0.325,-0.573 0.398,-0.518 0.407,-0.513C0.416,-0.506 0.434,-0.515 0.441,-0.526L0.492,-0.603C0.496,-0.61 0.498,-0.628 0.486,-0.635C0.456,-0.657 0.376,-0.71 0.272,-0.71C0.118,-0.71 0.041,-0.61 0.041,-0.511C0.041,-0.391 0.149,-0.324 0.235,-0.29C0.303,-0.263 0.338,-0.231 0.338,-0.189C0.338,-0.154 0.309,-0.129 0.269,-0.129C0.203,-0.129 0.131,-0.182 0.127,-0.184C0.12,-0.189 0.101,-0.191 0.093,-0.178L0.046,-0.095C0.038,-0.081 0.041,-0.077 0.051,-0.067Z" style="fill-rule:nonzero;"/>
            </g>
            <g transform="matrix(217.317,0,0,217.317,317.802,712.034)">
                <path d="M0.035,-0.349C0.035,-0.149 0.196,0.01 0.396,0.01C0.485,0.01 0.571,-0.021 0.639,-0.087C0.646,-0.094 0.647,-0.107 0.64,-0.114L0.562,-0.197C0.556,-0.204 0.543,-0.204 0.536,-0.198C0.5,-0.167 0.449,-0.15 0.402,-0.15C0.289,-0.15 0.205,-0.242 0.205,-0.353C0.205,-0.465 0.288,-0.559 0.401,-0.559C0.45,-0.559 0.499,-0.541 0.536,-0.508C0.543,-0.501 0.554,-0.501 0.561,-0.508L0.639,-0.589C0.647,-0.597 0.647,-0.609 0.638,-0.617C0.57,-0.679 0.496,-0.71 0.396,-0.71C0.196,-0.71 0.035,-0.549 0.035,-0.349Z" style="fill-rule:nonzero;"/>
            </g>
            <g transform="matrix(217.317,0,0,217.317,461.883,712.034)">
                <path d="M0.086,-0.019C0.086,-0.009 0.095,-0 0.105,-0L0.224,-0C0.235,-0 0.243,-0.009 0.243,-0.019L0.243,-0.282L0.529,-0.282L0.529,-0.019C0.529,-0.009 0.537,-0 0.548,-0L0.667,-0C0.677,-0 0.686,-0.009 0.686,-0.019L0.686,-0.681C0.686,-0.691 0.677,-0.7 0.667,-0.7L0.548,-0.7C0.537,-0.7 0.529,-0.691 0.529,-0.681L0.529,-0.429L0.243,-0.429L0.243,-0.681C0.243,-0.691 0.235,-0.7 0.224,-0.7L0.105,-0.7C0.095,-0.7 0.086,-0.691 0.086,-0.681L0.086,-0.019Z" style="fill-rule:nonzero;"/>
            </g>
            <g transform="matrix(217.317,0,0,217.317,627.479,712.034)">
                <path d="M0.086,-0.019C0.086,-0.009 0.095,-0 0.105,-0L0.224,-0C0.235,-0 0.243,-0.009 0.243,-0.019L0.243,-0.392L0.244,-0.392L0.639,0.005C0.641,0.007 0.649,0.01 0.652,0.01L0.668,0.01C0.678,0.01 0.687,0.002 0.687,-0.008L0.687,-0.681C0.687,-0.691 0.678,-0.7 0.668,-0.7L0.548,-0.7C0.537,-0.7 0.529,-0.691 0.529,-0.681L0.529,-0.326L0.528,-0.326L0.129,-0.71L0.104,-0.71C0.094,-0.71 0.085,-0.702 0.085,-0.692L0.086,-0.019Z" style="fill-rule:nonzero;"/>
            </g>
            <g transform="matrix(217.317,0,0,217.317,793.292,712.034)">
                <path d="M0.086,-0.019C0.086,-0.009 0.095,-0 0.105,-0L0.225,-0C0.235,-0 0.244,-0.009 0.244,-0.019L0.244,-0.681C0.244,-0.691 0.235,-0.7 0.225,-0.7L0.105,-0.7C0.095,-0.7 0.086,-0.691 0.086,-0.681L0.086,-0.019Z" style="fill-rule:nonzero;"/>
            </g>
            <g transform="matrix(217.317,0,0,217.317,862.833,712.034)">
                <path d="M0.176,-0.019C0.176,-0.009 0.185,-0 0.195,-0L0.315,-0C0.325,-0 0.334,-0.009 0.334,-0.019L0.334,-0.553L0.477,-0.553C0.488,-0.553 0.496,-0.562 0.496,-0.572L0.496,-0.681C0.496,-0.691 0.488,-0.7 0.477,-0.7L0.033,-0.7C0.022,-0.7 0.014,-0.691 0.014,-0.681L0.014,-0.572C0.014,-0.562 0.022,-0.553 0.033,-0.553L0.176,-0.553L0.176,-0.019Z" style="fill-rule:nonzero;"/>
            </g>
            <g transform="matrix(217.317,0,0,217.317,971.492,712.034)">
                <path d="M0.023,-0.019C0.023,-0.009 0.032,-0 0.042,-0L0.476,-0C0.487,-0 0.495,-0.009 0.495,-0.019L0.495,-0.128C0.495,-0.138 0.487,-0.147 0.476,-0.147L0.258,-0.147L0.258,-0.149L0.515,-0.668L0.515,-0.681C0.515,-0.691 0.506,-0.7 0.496,-0.7L0.071,-0.7C0.061,-0.7 0.052,-0.691 0.052,-0.681L0.052,-0.572C0.052,-0.562 0.061,-0.553 0.071,-0.553L0.289,-0.553L0.289,-0.551L0.023,-0.037L0.023,-0.019Z" style="fill-rule:nonzero;"/>
            </g>
            <g transform="matrix(217.317,0,0,217.317,1087.1,712.034)">
                <path d="M0.086,-0.019C0.086,-0.009 0.094,-0 0.105,-0L0.481,-0C0.492,-0 0.5,-0.009 0.5,-0.019L0.5,-0.128C0.5,-0.138 0.492,-0.147 0.481,-0.147L0.243,-0.147L0.243,-0.681C0.243,-0.691 0.234,-0.7 0.224,-0.7L0.105,-0.7C0.094,-0.7 0.086,-0.691 0.086,-0.681L0.086,-0.019Z" style="fill-rule:nonzero;"/>
            </g>
            <g transform="matrix(217.317,0,0,217.317,1195.98,712.034)">
                <path d="M0.086,-0.019C0.086,-0.009 0.094,-0 0.105,-0L0.519,-0C0.53,-0 0.538,-0.009 0.538,-0.019L0.538,-0.128C0.538,-0.138 0.53,-0.147 0.519,-0.147L0.242,-0.147L0.242,-0.282L0.47,-0.282C0.48,-0.282 0.489,-0.29 0.489,-0.301L0.489,-0.41C0.489,-0.42 0.48,-0.429 0.47,-0.429L0.242,-0.429L0.242,-0.553L0.519,-0.553C0.53,-0.553 0.538,-0.562 0.538,-0.572L0.538,-0.681C0.538,-0.691 0.53,-0.7 0.519,-0.7L0.105,-0.7C0.094,-0.7 0.086,-0.691 0.086,-0.681L0.086,-0.019Z" style="fill-rule:nonzero;"/>
            </g>
            <g transform="matrix(217.317,0,0,217.317,1321.15,712.034)">
                <path d="M0.086,-0.019C0.086,-0.009 0.094,-0 0.105,-0L0.224,-0C0.234,-0 0.243,-0.009 0.243,-0.019L0.243,-0.274L0.312,-0.274L0.445,-0.009C0.447,-0.005 0.453,-0 0.461,-0L0.594,-0C0.611,-0 0.618,-0.016 0.611,-0.029L0.474,-0.283C0.561,-0.318 0.622,-0.392 0.622,-0.484C0.622,-0.603 0.524,-0.7 0.404,-0.7L0.105,-0.7C0.094,-0.7 0.086,-0.691 0.086,-0.681L0.086,-0.019ZM0.243,-0.401L0.243,-0.557L0.391,-0.557C0.432,-0.557 0.467,-0.523 0.467,-0.481C0.467,-0.439 0.432,-0.401 0.391,-0.401L0.243,-0.401Z" style="fill-rule:nonzero;"/>
            </g>
        </g>
    </g>
    <g id="Profil">
        <g transform="matrix(1,0,0,1,1781.96,130.283)">
            <path d="M0,0.558L-1.115,0L0,0.558Z" style="fill:rgb(180,60,156);fill-rule:nonzero;"/>
        </g>
        <g transform="matrix(1,0,0,1,1780.85,130.841)">
            <path d="M0,-0.558L1.115,0L0,-0.558Z" style="fill:rgb(180,60,156);fill-rule:nonzero;stroke:rgb(35,31,32);stroke-width:1px;"/>
        </g>
        <g transform="matrix(1,0,0,1,1754.65,133.628)">
            <path d="M0,-1.115C0.187,-0.743 0.372,-0.372 0.558,0C0.743,-0.372 0.93,-0.743 1.115,-1.115L0,-1.115Z" style="fill:rgb(180,60,156);fill-rule:nonzero;stroke:white;stroke-width:1px;"/>
        </g>
        <g transform="matrix(1,0,0,1,1776.39,135.776)">
            <path d="M0,-1.591C1.437,0 0.719,-0.714 2.229,-1.591L0,-1.591Z" style="fill:rgb(180,60,156);fill-rule:nonzero;stroke:white;stroke-width:1px;"/>
        </g>
        <g transform="matrix(1,0,0,1,1734.58,138.645)">
            <path d="M0,-1.115L-0.557,0L0.558,0C0.372,-0.372 0.187,-0.743 0,-1.115Z" style="fill:rgb(180,60,156);fill-rule:nonzero;stroke:white;stroke-width:1px;"/>
        </g>
        <g transform="matrix(1,0,0,1,1749.08,141.989)">
            <path d="M0,-1.115C0.776,-0.043 0.057,-0.782 1.115,0C0.743,-0.372 0.372,-0.743 0,-1.115Z" style="fill:rgb(180,60,156);fill-rule:nonzero;stroke:white;stroke-width:1px;"/>
        </g>
        <g transform="matrix(1,0,0,1,1793.67,142.547)">
            <path d="M0,-1.115L0,0L0,-1.115Z" style="fill:rgb(180,60,156);fill-rule:nonzero;stroke:white;stroke-width:1px;"/>
        </g>
        <g transform="matrix(1,0,0,1,1813.74,160.385)">
            <path d="M0,-1.115L0,0L0,-1.115Z" style="fill:rgb(180,60,156);fill-rule:nonzero;stroke:white;stroke-width:1px;"/>
        </g>
        <g transform="matrix(1,0,0,1,1808.72,162.615)">
            <path d="M0,-1.115L0,0L0,-1.115Z" style="fill:rgb(180,60,156);fill-rule:nonzero;stroke:white;stroke-width:1px;"/>
        </g>
        <g transform="matrix(0,1,1,0,1723.89,153.715)">
            <path d="M-0.278,-1.951L1.951,-1.951L1.951,-0.278C1.208,-0.465 0.465,-0.65 -0.278,-0.836L-0.278,-1.951Z" style="fill:rgb(180,60,156);fill-rule:nonzero;"/>
        </g>
        <g transform="matrix(1,0,0,1,1715.25,172.947)">
            <path d="M0,-1.115L0,0C0.545,-0.973 0.509,-0.123 0,-1.115Z" style="fill:rgb(180,60,156);fill-rule:nonzero;stroke:white;stroke-width:1px;"/>
        </g>
        <g transform="matrix(1,0,0,1,1828.41,185.211)">
            <path d="M0,-1.115L0,0C0.544,-0.973 0.509,-0.123 0,-1.115Z" style="fill:rgb(180,60,156);fill-rule:nonzero;stroke:white;stroke-width:1px;"/>
        </g>
        <g transform="matrix(1,0,0,1,1714.69,194.688)">
            <path d="M0,-1.115C0.187,-0.743 0.372,-0.371 0.558,0C0.744,-0.371 0.93,-0.743 1.115,-1.115L0,-1.115Z" style="fill:rgb(180,60,156);fill-rule:nonzero;stroke:white;stroke-width:1px;"/>
        </g>
        <g transform="matrix(1,0,0,1,1711.9,199.705)">
            <path d="M0,-1.115C0.776,-0.043 0.057,-0.781 1.115,0C0.743,-0.372 0.372,-0.743 0,-1.115Z" style="fill:rgb(180,60,156);fill-rule:nonzero;stroke:white;stroke-width:1px;"/>
        </g>
        <g transform="matrix(1,0,0,1,1707.45,211.969)">
            <path d="M0,-1.115L0.557,0C0.743,-0.372 0.929,-0.743 1.114,-1.115L0,-1.115Z" style="fill:rgb(180,60,156);fill-rule:nonzero;stroke:white;stroke-width:1px;"/>
        </g>
        <g transform="matrix(1,0,0,1,1806.11,211.411)">
            <path d="M0,-0.557L1.114,0L0,-0.557Z" style="fill:rgb(180,60,156);fill-rule:nonzero;stroke:white;stroke-width:1px;"/>
        </g>
        <g transform="matrix(1,0,0,1,1818.38,227.577)">
            <path d="M0,-0.557L1.114,0L0,-0.557Z" style="fill:rgb(180,60,156);fill-rule:nonzero;stroke:white;stroke-width:1px;"/>
        </g>
        <g transform="matrix(1,0,0,1,1713.58,232.594)">
            <path d="M0,-4.459C-0.186,-2.973 -0.372,-1.486 -0.558,0C0.946,-0.891 0.21,-0.188 1.114,-1.672C1.116,-3.765 2.329,-3.132 0,-4.459" style="fill:rgb(180,60,156);fill-rule:nonzero;"/>
        </g>
        <g transform="matrix(1,0,0,1,1716.92,244.869)">
            <path d="M0,-1.125C-0.186,-0.753 -0.372,-0.382 -0.558,-0.01C1.127,-0.712 0.109,0 1.114,-1.125L0,-1.125Z" style="fill:rgb(180,60,156);fill-rule:nonzero;stroke:white;stroke-width:1px;"/>
        </g>
        <g transform="matrix(1,0,0,1,1718.59,244.859)">
            <path d="M0,-0.558L1.115,0L0,-0.558Z" style="fill:rgb(180,60,156);fill-rule:nonzero;stroke:white;stroke-width:1px;"/>
        </g>
        <g transform="matrix(1,0,0,1,1736.99,248.761)">
            <path d="M0,-0.558C0.371,-0.372 0.743,-0.186 1.114,0C0.743,-0.186 0.371,-0.372 0,-0.558Z" style="fill:rgb(180,60,156);fill-rule:nonzero;stroke:white;stroke-width:1px;"/>
        </g>
        <g transform="matrix(1,0,0,1,1852.38,249.876)">
            <path d="M0,-1.115L0,0L0,-1.115Z" style="fill:rgb(180,60,156);fill-rule:nonzero;stroke:white;stroke-width:1px;"/>
        </g>
        <g transform="matrix(1,0,0,1,1856.28,250.99)">
            <path d="M0,-1.115C0.776,-0.043 0.057,-0.782 1.115,0C0.743,-0.372 0.372,-0.743 0,-1.115Z" style="fill:rgb(180,60,156);fill-rule:nonzero;stroke:white;stroke-width:1px;"/>
        </g>
        <g transform="matrix(1,0,0,1,1741.45,252.663)">
            <path d="M0,-1.115L0,0L0,-1.115Z" style="fill:rgb(180,60,156);fill-rule:nonzero;stroke:white;stroke-width:1px;"/>
        </g>
        <g transform="matrix(1,0,0,1,1707.45,266.599)">
            <path d="M0,-5.017C0.186,-3.531 0.371,-2.044 0.557,-0.558C0.929,-0.371 1.301,-0.186 1.672,0C1.69,-3.094 1.691,-3.714 0,-5.017" style="fill:rgb(180,60,156);fill-rule:nonzero;"/>
        </g>
        <g transform="matrix(1,0,0,1,1777.68,264.079)">
            <path d="M0,-1.382C0.941,0 0.335,-0.73 1.673,-1.382L0,-1.382Z" style="fill:rgb(180,60,156);fill-rule:nonzero;stroke:white;stroke-width:1px;"/>
        </g>
        <g transform="matrix(1,0,0,1,1747.58,272.731)">
            <path d="M0,-1.115L0,0L0,-1.115Z" style="fill:rgb(180,60,156);fill-rule:nonzero;stroke:white;stroke-width:1px;"/>
        </g>
        <g transform="matrix(1,0,0,1,1875.79,281.093)">
            <path d="M0,-1.115C0.187,-0.743 0.372,-0.371 0.558,0C0.321,-0.517 1.005,-0.377 0,-1.115Z" style="fill:rgb(180,60,156);fill-rule:nonzero;stroke:white;stroke-width:1px;"/>
        </g>
        <g transform="matrix(1,0,0,1,1891.96,307.293)">
            <path d="M0,-5.017C-1.3,-4.274 -2.602,-3.531 -3.901,-2.787C-3.716,-1.858 -3.53,-0.929 -3.345,0L-0.557,0C0.307,-2.35 0.789,-1.866 2.23,-3.345L1.115,-3.345C0.744,-3.902 0.372,-4.46 0,-5.017" style="fill:rgb(180,60,156);fill-rule:nonzero;"/>
        </g>
        <g transform="matrix(1,0,0,1,1730.86,311.194)">
            <path d="M0,-2.229C-0.187,-1.486 -0.372,-0.743 -0.558,0C0.516,-0.845 0.429,-0.998 1.114,-2.229L0,-2.229Z" style="fill:rgb(180,60,156);fill-rule:nonzero;"/>
        </g>
        <g transform="matrix(1,0,0,1,1701.87,376.997)">
            <path d="M0,-1.138C1.004,0 0.009,-0.744 1.673,-0.023L0,-1.138Z" style="fill:rgb(180,60,156);fill-rule:nonzero;stroke:white;stroke-width:1px;"/>
        </g>
        <g transform="matrix(1,0,0,1,1704.1,394.813)">
            <path d="M0,-1.115C-0.187,-0.743 -0.372,-0.372 -0.558,0L0.558,0C0.371,-0.372 0.186,-0.743 0,-1.115Z" style="fill:rgb(180,60,156);fill-rule:nonzero;stroke:white;stroke-width:1px;"/>
        </g>
        <g transform="matrix(1,0,0,1,1682.36,423.243)">
            <path d="M0,-1.115C-0.186,-0.743 -0.371,-0.372 -0.558,0L0.558,0C0.372,-0.372 0.187,-0.743 0,-1.115Z" style="fill:rgb(180,60,156);fill-rule:nonzero;stroke:white;stroke-width:1px;"/>
        </g>
        <g transform="matrix(1,0,0,1,1524.6,542.537)">
            <path d="M0,-1.115C0.187,-0.743 0.372,-0.372 0.558,0C0.744,-0.372 0.93,-0.743 1.115,-1.115L0,-1.115Z" style="fill:rgb(180,60,156);fill-rule:nonzero;stroke:white;stroke-width:1px;"/>
        </g>
        <g transform="matrix(1,0,0,1,1536.87,545.325)">
            <path d="M0,-0.558C0.371,-0.372 0.743,-0.186 1.114,0C0.743,-0.186 0.371,-0.372 0,-0.558Z" style="fill:rgb(180,60,156);fill-rule:nonzero;stroke:white;stroke-width:1px;"/>
        </g>
        <g transform="matrix(1,0,0,1,1539.65,548.669)">
            <path d="M0,-1.115C-0.186,-0.743 -0.372,-0.372 -0.558,0C0.478,-0.695 -0.253,-0.498 0,-1.115Z" style="fill:rgb(180,60,156);fill-rule:nonzero;stroke:white;stroke-width:1px;"/>
        </g>
        <g transform="matrix(1,0,0,1,1522.37,558.703)">
            <path d="M0,-1.115L0,0C0.545,-0.973 0.509,-0.123 0,-1.115Z" style="fill:rgb(180,60,156);fill-rule:nonzero;stroke:white;stroke-width:1px;"/>
        </g>
        <g transform="matrix(1,0,0,1,1533.52,562.048)">
            <path d="M0,-0.557L1.114,0L0,-0.557Z" style="fill:rgb(180,60,156);fill-rule:nonzero;stroke:white;stroke-width:1px;"/>
        </g>
        <g transform="matrix(1,0,0,1,1536.31,588.806)">
            <path d="M0,-1.115C-0.186,-0.743 -0.372,-0.372 -0.558,0C0.478,-0.695 -0.253,-0.498 0,-1.115Z" style="fill:rgb(180,60,156);fill-rule:nonzero;stroke:white;stroke-width:1px;"/>
        </g>
        <g transform="matrix(1,0,0,1,1545.23,601.07)">
            <path d="M0,-1.115C0.186,-0.743 0.372,-0.371 0.558,0C0.743,-0.371 0.93,-0.743 1.115,-1.115L0,-1.115Z" style="fill:rgb(180,60,156);fill-rule:nonzero;stroke:white;stroke-width:1px;"/>
        </g>
        <g transform="matrix(1,0,0,1,1554.15,660.717)">
            <path d="M0,-1.115C0.776,-0.043 0.057,-0.781 1.115,0L0,-1.115Z" style="fill:rgb(180,60,156);fill-rule:nonzero;stroke:white;stroke-width:1px;"/>
        </g>
        <g transform="matrix(1,0,0,1,1557.49,705.87)">
            <path d="M0,-1.672L0,0C0.187,-0.557 0.372,-1.114 0.558,-1.672L0,-1.672Z" style="fill:rgb(180,60,156);fill-rule:nonzero;stroke:white;stroke-width:1px;"/>
        </g>
        <g transform="matrix(1,0,0,1,1561.95,735.415)">
            <path d="M0,-1.672C0.186,-1.114 0.372,-0.557 0.558,0C1.696,-1.003 0.951,-0.008 1.673,-1.672L0,-1.672Z" style="fill:rgb(180,60,156);fill-rule:nonzero;stroke:white;stroke-width:1px;"/>
        </g>
        <g transform="matrix(1,0,0,1,1555.26,744.335)">
            <path d="M0,-1.115L0,0L0,-1.115Z" style="fill:rgb(180,60,156);fill-rule:nonzero;stroke:white;stroke-width:1px;"/>
        </g>
        <g transform="matrix(1,0,0,1,1555.82,758.828)">
            <path d="M0,-1.672L0,0L1.115,0C0.743,-0.558 0.371,-1.115 0,-1.672Z" style="fill:rgb(180,60,156);fill-rule:nonzero;stroke:white;stroke-width:1px;"/>
        </g>
        <g transform="matrix(1,0,0,1,1561.39,781.951)">
            <path d="M0,-1.382C0.941,0 0.335,-0.731 1.673,-1.382L0,-1.382Z" style="fill:rgb(180,60,156);fill-rule:nonzero;stroke:white;stroke-width:1px;"/>
        </g>
        <g transform="matrix(1,0,0,1,1548.01,782.799)">
            <path d="M0,-1.115L0,0L0,-1.115Z" style="fill:rgb(180,60,156);fill-rule:nonzero;stroke:white;stroke-width:1px;"/>
        </g>
        <g transform="matrix(1,0,0,1,1556.93,783.913)">
            <path d="M0,-0.557C0.371,-0.371 0.743,-0.186 1.114,0C0.743,-0.186 0.371,-0.371 0,-0.557Z" style="fill:rgb(180,60,156);fill-rule:nonzero;stroke:white;stroke-width:1px;"/>
        </g>
        <g transform="matrix(1,0,0,1,1546.34,797.837)">
            <path d="M0,-1.659C0.371,-1.101 0.743,-0.545 1.114,0.013C0.413,-1.672 1.125,-0.654 0,-1.659Z" style="fill:rgb(180,60,156);fill-rule:nonzero;stroke:white;stroke-width:1px;"/>
        </g>
        <g transform="matrix(1,0,0,1,1560.84,803.981)">
            <path d="M0,-1.114C-0.186,-0.743 -0.371,-0.371 -0.557,0C0,-0.371 0.558,-0.743 1.115,-1.114L0,-1.114Z" style="fill:rgb(180,60,156);fill-rule:nonzero;stroke:white;stroke-width:1px;"/>
        </g>
        <g transform="matrix(1,0,0,1,1558.61,805.096)">
            <path d="M0,-1.115C0.372,-0.743 0.743,-0.371 1.115,0C0.743,-0.371 0.372,-0.743 0,-1.115Z" style="fill:rgb(180,60,156);fill-rule:nonzero;stroke:white;stroke-width:1px;"/>
        </g>
        <g transform="matrix(1,0,0,1,1561.39,805.654)">
            <path d="M0,-1.115L0,0L0,-1.115Z" style="fill:rgb(180,60,156);fill-rule:nonzero;stroke:white;stroke-width:1px;"/>
        </g>
        <g transform="matrix(1,0,0,1,1559.72,809.556)">
            <path d="M0,-2.23C0.508,-0.195 -0.021,-1.089 1.114,0C0.743,-0.743 0.371,-1.487 0,-2.23Z" style="fill:rgb(180,60,156);fill-rule:nonzero;stroke:white;stroke-width:1px;"/>
        </g>
        <g transform="matrix(1,0,0,1,1556.38,820.147)">
            <path d="M0,-2.229C0.371,-1.486 0.743,-0.743 1.114,0C0.743,-0.743 0.371,-1.486 0,-2.229Z" style="fill:rgb(180,60,156);fill-rule:nonzero;stroke:white;stroke-width:1px;"/>
        </g>
        <g transform="matrix(-0.707318,0.706895,0.706895,0.707318,1551.9,822.018)">
            <path d="M0.639,-2.495C0.902,-1.707 1.165,-0.918 1.428,-0.13L0.639,-0.129L0.245,-0.524C0.376,-1.181 0.507,-1.837 0.639,-2.495Z" style="fill:rgb(180,60,156);fill-rule:nonzero;stroke:white;stroke-width:1px;"/>
        </g>
        <g transform="matrix(1,0,0,1,1574.21,825.165)">
            <path d="M0,-0.558C0.372,-0.372 0.743,-0.186 1.115,0C0.743,-0.186 0.372,-0.372 0,-0.558Z" style="fill:rgb(180,60,156);fill-rule:nonzero;stroke:white;stroke-width:1px;"/>
        </g>
        <g transform="matrix(1,0,0,1,1566.41,837.429)">
            <path d="M0,-0.558C0.371,-0.371 0.743,-0.186 1.114,0C0.743,-0.186 0.371,-0.371 0,-0.558Z" style="fill:rgb(180,60,156);fill-rule:nonzero;stroke:white;stroke-width:1px;"/>
        </g>
        <g transform="matrix(1,0,0,1,1566.97,841.331)">
            <path d="M0,-1.115C0.186,-0.743 0.371,-0.372 0.557,0C0.32,-0.517 1.004,-0.377 0,-1.115Z" style="fill:rgb(180,60,156);fill-rule:nonzero;stroke:white;stroke-width:1px;"/>
        </g>
        <g transform="matrix(1,0,0,1,1556.38,842.447)">
            <path d="M0,-0.558C0.371,-0.372 0.743,-0.187 1.114,0C0.743,-0.187 0.371,-0.372 0,-0.558Z" style="fill:rgb(180,60,156);fill-rule:nonzero;stroke:white;stroke-width:1px;"/>
        </g>
        <g transform="matrix(1,0,0,1,1569.2,844.119)">
            <path d="M0,-0.558C0.371,-0.371 0.743,-0.186 1.115,0C0.743,-0.186 0.371,-0.371 0,-0.558Z" style="fill:rgb(180,60,156);fill-rule:nonzero;stroke:white;stroke-width:1px;"/>
        </g>
        <g transform="matrix(1,0,0,1,1553.03,849.136)">
            <path d="M0,-1.115L0,0L0,-1.115Z" style="fill:rgb(180,60,156);fill-rule:nonzero;stroke:white;stroke-width:1px;"/>
        </g>
        <g transform="matrix(1,0,0,1,1559.72,858.613)">
            <path d="M0,-0.558C0.371,-0.372 0.743,-0.187 1.114,0C0.743,-0.187 0.371,-0.372 0,-0.558Z" style="fill:rgb(180,60,156);fill-rule:nonzero;stroke:white;stroke-width:1px;"/>
        </g>
        <g transform="matrix(1,0,0,1,1556.93,864.186)">
            <path d="M0,-1.115L0,0L0,-1.115Z" style="fill:rgb(180,60,156);fill-rule:nonzero;stroke:white;stroke-width:1px;"/>
        </g>
        <g transform="matrix(1,0,0,1,1568.64,869.204)">
            <path d="M0,-1.115C1.004,0.023 0.009,-0.721 1.673,-0.001C0.669,-1.138 1.664,-0.394 0,-1.115Z" style="fill:rgb(180,60,156);fill-rule:nonzero;stroke:white;stroke-width:1px;"/>
        </g>
        <g transform="matrix(1,0,0,1,1553.03,882.582)">
            <path d="M0,-1.114L0,0C0.544,-0.972 0.509,-0.122 0,-1.114Z" style="fill:rgb(180,60,156);fill-rule:nonzero;stroke:white;stroke-width:1px;"/>
        </g>
        <g transform="matrix(-0.707107,0.707107,0.707107,0.707107,1560.03,896.158)">
            <path d="M0.081,-1.149C0.476,-1.017 0.87,-0.886 1.264,-0.755L0.081,0.428C-0.05,0.034 -0.181,-0.36 -0.313,-0.754L0.081,-1.149Z" style="fill:rgb(180,60,156);fill-rule:nonzero;stroke:white;stroke-width:1px;"/>
        </g>
        <g transform="matrix(1,0,0,1,1563.07,906.553)">
            <path d="M0,-1.672L0,0L1.114,0C0.743,-0.558 0.371,-1.115 0,-1.672Z" style="fill:rgb(180,60,156);fill-rule:nonzero;stroke:white;stroke-width:1px;"/>
        </g>
        <g transform="matrix(1,0,0,1,1561.39,919.374)">
            <path d="M0,-1.115L0,0C0.545,-0.972 0.509,-0.123 0,-1.115Z" style="fill:rgb(180,60,156);fill-rule:nonzero;stroke:white;stroke-width:1px;"/>
        </g>
        <g transform="matrix(1,0,0,1,1558.61,942.579)">
            <path d="M0,-0.907C1.405,0 0.093,-0.357 1.673,-0.907L0,-0.907Z" style="fill:rgb(180,60,156);fill-rule:nonzero;stroke:white;stroke-width:1px;"/>
        </g>
        <g transform="matrix(1,0,0,1,1561.95,956.166)">
            <path d="M0,-0.558C0.372,-0.372 0.743,-0.186 1.115,0C0.743,-0.186 0.372,-0.372 0,-0.558Z" style="fill:rgb(180,60,156);fill-rule:nonzero;stroke:white;stroke-width:1px;"/>
        </g>
        <g transform="matrix(1,0,0,1,1558.61,980.693)">
            <path d="M0,-1.114L0,0C0.545,-0.972 0.509,-0.122 0,-1.114Z" style="fill:rgb(180,60,156);fill-rule:nonzero;stroke:white;stroke-width:1px;"/>
        </g>
        <g transform="matrix(1,0,0,1,1545.23,1030.31)">
            <path d="M0,-1.114C0.776,-0.043 0.057,-0.781 1.115,0C0.743,-0.371 0.372,-0.743 0,-1.114Z" style="fill:rgb(180,60,156);fill-rule:nonzero;stroke:white;stroke-width:1px;"/>
        </g>
        <g transform="matrix(1,0,0,1,1546.9,1030.28)">
            <path d="M0,-1.091C0.557,-0.72 1.114,-0.348 1.672,0.023C0.668,-1.114 1.664,-0.37 0,-1.091Z" style="fill:rgb(180,60,156);fill-rule:nonzero;stroke:white;stroke-width:1px;"/>
        </g>
        <g transform="matrix(1,0,0,1,1978.37,412.757)">
            <path d="M0,397.356C-0.186,396.985 -0.372,396.613 -0.558,396.242L0.558,396.242C0.372,396.613 0.186,396.985 0,397.356M-5.574,414.08C-5.761,413.709 -5.946,413.336 -6.132,412.965L-5.017,412.965C-5.203,413.336 -5.389,413.709 -5.574,414.08M-8.362,363.352L-8.362,360.565C-7.99,361.122 -7.618,361.679 -7.247,362.237C-7.618,362.609 -7.99,362.98 -8.362,363.352M-9.477,353.876C-9.291,353.318 -9.104,352.76 -8.919,352.203C-8.733,352.946 -8.548,353.69 -8.362,354.433L-8.919,354.433C-9.104,354.247 -9.291,354.061 -9.477,353.876M-11.149,416.31L-11.149,414.637C-10.592,414.823 -10.034,415.009 -9.477,415.195C-10.034,415.567 -10.592,415.938 -11.149,416.31M-11.149,343.841C-9.562,345.607 -10.556,349.997 -10.592,352.76L-11.149,352.76C-12.979,350.505 -12.146,346.374 -11.149,343.841M-17.281,471.498L-17.281,470.382C-16.772,471.375 -16.736,470.525 -17.281,471.498M-18.953,473.727C-19.14,473.913 -19.325,474.099 -19.511,474.285L-20.068,474.285C-20.439,472.613 -20.812,470.94 -21.183,469.268C-20.44,469.454 -19.696,469.639 -18.953,469.825C-18.768,470.382 -18.582,470.94 -18.396,471.498C-18.582,472.241 -18.768,472.984 -18.953,473.727M-18.953,459.234C-20.29,459.885 -19.685,460.616 -20.626,459.234L-18.953,459.234ZM-19.511,379.518C-19.696,379.889 -19.883,380.261 -20.068,380.633C-20.254,380.261 -20.44,379.889 -20.626,379.518L-19.511,379.518ZM-22.855,434.706L-22.855,435.821C-25.457,432.476 -28.059,429.13 -30.66,425.787C-29.917,425.415 -29.173,425.043 -28.43,424.671C-24.526,426.565 -24.075,429.799 -21.74,433.034C-22.112,433.59 -22.483,434.148 -22.855,434.706M-30.103,408.505L-28.987,408.505C-29.73,409.063 -30.474,409.621 -31.218,410.178C-30.846,409.621 -30.474,409.063 -30.103,408.505M-34.005,366.697L-34.005,365.024L-32.332,365.024L-34.005,366.697ZM-36.792,397.356L-35.677,397.356C-35.862,397.728 -36.049,398.1 -36.234,398.471C-36.42,398.1 -36.606,397.728 -36.792,397.356M-39.579,341.054C-39.765,340.682 -39.95,340.311 -40.137,339.939C-39.132,340.677 -39.815,340.537 -39.579,341.054M-40.137,380.633L-40.137,379.518C-39.628,380.51 -39.592,379.66 -40.137,380.633M-41.251,398.471L-41.251,396.799L-40.694,396.799C-40.88,397.356 -41.065,397.914 -41.251,398.471M-44.596,342.168C-42.933,342.89 -43.928,342.145 -42.924,343.284C-44.588,342.563 -43.593,343.307 -44.596,342.168M-52.4,338.266L-52.4,336.037C-49.339,336.237 -47.886,336.751 -46.269,338.266L-52.4,338.266ZM-49.613,411.293C-48.555,412.074 -49.274,411.335 -48.498,412.408L-49.613,411.293ZM-54.073,348.858L-54.073,347.186C-53.701,347.372 -53.329,347.557 -52.958,347.744C-53.329,348.115 -53.701,348.487 -54.073,348.858M-53.516,352.203C-53.701,351.832 -53.887,351.46 -54.073,351.088L-52.958,351.088C-53.144,351.46 -53.329,351.832 -53.516,352.203M-60.205,354.433C-59.833,354.804 -59.462,355.176 -59.09,355.547C-60.148,354.766 -59.429,355.504 -60.205,354.433M-25.085,345.513C-24.041,347.124 -24.366,345.919 -25.085,347.744L-25.085,348.858C-25.457,348.487 -25.829,348.115 -26.2,347.744C-25.829,347.001 -25.457,346.256 -25.085,345.513M-70.796,423C-71.168,422.442 -71.54,421.884 -71.911,421.327C-71.168,421.512 -70.425,421.699 -69.682,421.884C-70.053,422.256 -70.425,422.627 -70.796,423M-71.911,395.684C-72.097,395.313 -72.283,394.941 -72.469,394.569C-71.464,395.307 -72.147,395.167 -71.911,395.684M-74.141,341.054C-73.955,339.753 -73.77,338.453 -73.583,337.152C-73.397,338.266 -73.212,339.381 -73.026,340.497C-73.397,340.682 -73.77,340.868 -74.141,341.054M-72.469,336.594C-73.527,335.813 -72.808,336.551 -73.583,335.479C-73.212,335.851 -72.841,336.223 -72.469,336.594M-75.813,279.734L-77.485,279.734L-77.485,278.062C-76.929,278.433 -76.371,278.805 -75.813,279.177L-75.813,279.734ZM-76.929,525.57C-77.671,525.384 -78.415,525.199 -79.158,525.012C-78.972,524.641 -78.786,524.269 -78.601,523.898L-76.929,523.898L-76.929,525.57ZM-79.716,573.511C-79.344,573.882 -78.972,574.254 -78.601,574.626C-79.659,573.844 -78.939,574.583 -79.716,573.511M-83.061,402.931L-83.061,401.258C-81.935,402.264 -82.647,401.246 -81.945,402.931L-83.061,402.931ZM-85.848,280.849C-86.941,279.4 -86.392,280.327 -86.405,278.62C-86.033,278.805 -85.661,278.991 -85.29,279.177C-85.476,279.734 -85.661,280.292 -85.848,280.849M-88.635,409.621C-87.576,410.402 -88.296,409.664 -87.52,410.735C-87.892,410.364 -88.263,409.992 -88.635,409.621M-89.75,594.694C-89.563,594.137 -89.378,593.579 -89.192,593.022C-88.734,594.393 -88.985,593.499 -89.75,594.694M-91.422,543.966C-91.05,543.409 -90.679,542.851 -90.308,542.293L-89.192,542.293C-89.563,543.037 -89.936,543.781 -90.308,544.524C-90.679,544.337 -91.05,544.152 -91.422,543.966M-91.422,593.58C-91.236,593.208 -91.05,592.836 -90.864,592.464C-90.679,592.836 -90.493,593.208 -90.308,593.58L-91.422,593.58ZM-88.635,285.309C-90.299,284.587 -89.304,285.333 -90.308,284.194C-89.75,284.565 -89.192,284.937 -88.635,285.309M-85.29,281.964C-84.919,282.335 -84.547,282.708 -84.175,283.079C-85.233,282.297 -84.514,283.036 -85.29,281.964M-81.945,281.407L-80.272,281.407C-79.901,283.264 -79.529,285.124 -79.158,286.981C-80.459,286.61 -81.76,286.238 -83.061,285.866C-82.688,284.379 -82.317,282.893 -81.945,281.407M-77.485,294.786C-77.857,294.971 -78.229,295.157 -78.601,295.343C-78.786,294.786 -78.972,294.228 -79.158,293.67C-78.601,294.043 -78.043,294.414 -77.485,294.786M-79.716,295.9L-80.83,294.786C-79.772,295.567 -80.491,294.829 -79.716,295.9M-100.341,645.422L-100.341,644.865C-99.598,644.493 -98.854,644.122 -98.111,643.75C-97.554,643.936 -96.996,644.122 -96.438,644.307C-97.65,645.276 -97.937,645.306 -100.341,645.422M-99.784,320.428C-99.227,320.614 -98.669,320.799 -98.111,320.986L-98.111,321.543L-100.341,321.543C-100.155,321.171 -99.97,320.799 -99.784,320.428M-105.916,659.358C-105.729,658.801 -105.544,658.244 -105.358,657.686L-104.801,657.686C-105.521,659.35 -104.777,658.355 -105.916,659.358M-117.064,228.449C-117.251,228.077 -117.437,227.706 -117.622,227.334C-116.618,228.072 -117.301,227.931 -117.064,228.449M-124.312,647.094C-124.497,646.723 -124.684,646.351 -124.869,645.98C-123.864,646.717 -124.548,646.577 -124.312,647.094M-147.725,653.226C-146.011,650.303 -144.441,649.284 -142.15,647.094L-144.38,643.192C-141.407,643.75 -138.434,644.307 -135.461,644.865C-136.858,647.961 -144.619,651.944 -147.725,653.226M-139.362,324.888C-139.734,324.331 -140.106,323.773 -140.478,323.215C-139.353,324.221 -140.064,323.203 -139.362,324.888M-151.627,507.732C-149.963,508.453 -150.958,507.709 -149.954,508.846C-150.512,508.475 -151.069,508.103 -151.627,507.732M-152.741,508.29C-152.928,507.918 -153.113,507.545 -153.299,507.174C-152.295,507.913 -152.978,507.772 -152.741,508.29M-156.086,440.837C-156.272,439.909 -156.458,438.979 -156.644,438.05C-156.272,438.979 -155.9,439.909 -155.528,440.837L-156.086,440.837ZM-158.316,545.081L-158.316,543.409C-157.944,543.78 -157.573,544.152 -157.201,544.524C-157.573,544.71 -157.944,544.895 -158.316,545.081M-158.316,629.256L-160.546,629.256C-160.917,629.071 -161.289,628.884 -161.661,628.699C-161.476,628.327 -161.289,627.956 -161.104,627.584C-159.091,627.975 -159.423,627.806 -158.316,628.699L-158.316,629.256ZM-164.448,615.32L-164.448,613.647L-162.218,613.647L-161.661,615.32L-161.661,615.877L-163.333,615.877C-163.705,615.692 -164.076,615.505 -164.448,615.32M-168.351,504.387C-177.755,505.508 -192.55,509.623 -202.354,511.634C-223.536,513.677 -244.724,515.722 -265.904,517.766L-266.462,517.766C-269.364,507.252 -264.958,457.707 -261.444,455.332C-257.147,453.214 -249.286,455.785 -244.721,454.774C-232.43,452.051 -176.826,453.001 -169.465,446.413C-167.421,446.969 -165.377,447.527 -163.333,448.085C-165.005,466.85 -166.678,485.622 -168.351,504.387M-166.678,511.077C-166.492,510.705 -166.306,510.334 -166.12,509.961C-165.831,511.174 -165.679,510.331 -166.678,511.077M-212.389,521.111L-212.946,521.111C-213.317,520.739 -213.689,520.368 -214.062,519.996C-213.689,519.625 -213.317,519.252 -212.946,518.88L-211.831,518.88C-212.018,519.624 -212.203,520.368 -212.389,521.111M-216.291,521.669C-216.105,521.296 -215.919,520.924 -215.733,520.553C-215.673,521.679 -215.144,521.182 -216.291,521.669M-265.904,523.34C-265.347,523.712 -264.789,524.084 -264.231,524.456C-265.896,523.734 -264.9,524.479 -265.904,523.34M-265.347,449.2C-264.211,450.29 -264.74,449.394 -264.231,451.429L-265.347,451.429L-265.347,449.2ZM-261.444,154.308C-260.701,154.494 -259.958,154.679 -259.215,154.865L-259.215,160.997C-261.073,161.555 -262.932,162.112 -264.789,162.669C-264.976,161.926 -265.161,161.183 -265.347,160.44C-264.046,158.396 -262.745,156.352 -261.444,154.308M-264.789,137.027C-264.418,137.212 -264.046,137.398 -263.675,137.585C-264.046,137.956 -264.418,138.328 -264.789,138.699L-264.789,137.027ZM-262.002,128.107C-262.187,128.479 -262.374,128.851 -262.56,129.222C-262.745,128.851 -262.931,128.479 -263.117,128.107L-262.002,128.107ZM-256.985,439.723C-258.322,440.375 -257.716,441.105 -258.657,439.723L-256.985,439.723ZM-256.985,119.189C-258.048,118.345 -257.991,118.202 -258.657,116.959C-258.1,117.702 -257.542,118.445 -256.985,119.189M-244.721,168.801L-246.394,168.801C-246.208,168.43 -246.021,168.058 -245.836,167.687L-245.278,167.687C-245.093,168.058 -244.907,168.43 -244.721,168.801M-235.244,375.616C-236.908,374.895 -235.913,375.639 -236.917,374.501C-235.253,375.222 -236.248,374.477 -235.244,375.616M-228.555,163.227C-230.219,162.506 -229.224,163.251 -230.228,162.112C-228.563,162.833 -229.559,162.088 -228.555,163.227M-217.406,314.854C-217.777,314.482 -218.149,314.11 -218.521,313.739C-217.463,314.52 -218.183,313.782 -217.406,314.854M-214.062,332.692C-215.119,331.911 -214.399,332.649 -215.176,331.578L-214.062,332.692ZM-207.372,443.067L-208.486,441.953C-207.429,442.734 -208.147,441.996 -207.372,443.067M-201.24,150.406C-201.054,150.034 -200.868,149.662 -200.683,149.291C-200.497,149.662 -200.311,150.034 -200.125,150.406L-201.24,150.406ZM-234.13,126.993C-222.771,127.739 -216.284,128.728 -209.044,134.24C-205.055,137.276 -204.705,141.384 -199.01,143.159C-198.639,143.716 -198.267,144.274 -197.896,144.831C-198.081,145.574 -198.267,146.318 -198.452,147.061C-207.138,148.403 -217.979,148.017 -227.997,145.946C-230.413,145.389 -232.829,144.831 -235.244,144.273C-239.74,145.356 -245.269,150.017 -249.738,149.848C-250.109,150.406 -250.481,150.963 -250.853,151.521C-250.11,153.007 -249.366,154.494 -248.623,155.98C-250.778,157.849 -252.116,157.126 -253.083,160.44L-256.428,160.44C-256.613,160.068 -256.799,159.696 -256.985,159.325C-255.328,154.51 -256.007,148.947 -257.542,143.716C-250.77,136.928 -240.307,134.44 -234.13,126.993M-221.308,120.861C-223.321,120.469 -222.989,120.639 -224.096,119.746C-222.083,120.137 -222.414,119.968 -221.308,120.861M-195.665,146.503C-196.408,146.875 -197.151,147.247 -197.896,147.618C-197.709,147.247 -197.523,146.875 -197.338,146.503L-195.665,146.503ZM-190.648,429.689L-190.648,430.246C-191.02,430.432 -191.392,430.618 -191.763,430.803C-191.949,430.432 -192.135,430.06 -192.32,429.689C-192.135,429.502 -191.949,429.317 -191.763,429.131C-191.392,429.317 -191.02,429.502 -190.648,429.689M-211.274,124.206C-207.491,125.878 -186.639,144.718 -185.631,148.176C-202.015,147.408 -202.618,130.328 -218.521,128.107C-215.354,126.612 -213.543,126.324 -211.274,124.206M-186.746,297.015C-186.932,297.387 -187.118,297.758 -187.304,298.13C-187.489,297.758 -187.675,297.387 -187.861,297.015L-186.746,297.015ZM-190.091,150.963L-188.976,150.963C-189.162,151.335 -189.348,151.707 -189.533,152.078C-189.72,151.707 -189.905,151.335 -190.091,150.963M-183.401,310.952C-182.844,311.137 -182.286,311.323 -181.729,311.509C-179.363,313.049 -178.836,314.888 -180.057,317.084C-181.667,318.878 -185.792,319.015 -188.419,317.641L-189.533,317.641L-189.533,317.084C-187.848,314.387 -185.33,313.352 -183.401,310.952M-181.729,143.159L-182.286,142.044C-181.282,142.782 -181.966,142.641 -181.729,143.159M-180.057,302.589C-180.429,302.218 -180.8,301.846 -181.172,301.475C-180.113,302.256 -180.833,301.518 -180.057,302.589M-180.057,288.096C-179.871,288.467 -179.685,288.839 -179.499,289.211L-180.614,289.211C-180.429,288.839 -180.242,288.467 -180.057,288.096M-175.597,317.641C-175.783,318.012 -175.969,318.384 -176.154,318.755C-176.341,318.384 -176.526,318.012 -176.712,317.641L-175.597,317.641ZM-163.891,483.761L-162.775,483.761L-162.775,486.548L-163.333,486.548C-163.519,485.62 -163.705,484.69 -163.891,483.761M-164.448,522.225L-164.448,520.553L-163.891,520.553C-164.076,521.111 -164.263,521.669 -164.448,522.225M-162.218,160.44C-162.404,160.811 -162.59,161.183 -162.775,161.555C-162.962,161.183 -163.147,160.811 -163.333,160.44L-162.218,160.44ZM-271.479,130.337L-271.479,129.78C-270.921,129.594 -270.364,129.408 -269.807,129.222C-267.851,128.757 -269.813,130.111 -271.479,130.337M-270.921,312.624C-270.735,312.252 -270.55,311.88 -270.364,311.509C-269.992,311.88 -269.62,312.252 -269.249,312.624L-270.921,312.624ZM-276.496,585.775C-276.682,585.403 -276.867,585.032 -277.054,584.66C-276.049,585.398 -276.732,585.257 -276.496,585.775M-278.726,522.225C-278.911,521.854 -279.097,521.482 -279.283,521.111C-278.278,521.849 -278.962,521.708 -278.726,522.225M-280.397,559.017C-279.272,560.023 -279.985,559.004 -279.283,560.69C-279.654,560.132 -280.026,559.575 -280.397,559.017M-282.07,594.694L-280.397,594.694C-281.735,595.346 -281.129,596.077 -282.07,594.694M-282.628,513.306C-282.813,512.935 -282.999,512.563 -283.185,512.191C-282.181,512.929 -282.864,512.789 -282.628,513.306M-284.857,575.183C-284.485,575.555 -284.114,575.926 -283.743,576.298L-283.743,577.97L-285.415,577.97C-285.229,577.042 -285.043,576.112 -284.857,575.183M-284.3,506.617L-284.3,505.502C-283.792,506.494 -283.756,505.644 -284.3,506.617M-284.3,487.106C-283.557,487.292 -282.813,487.478 -282.07,487.664L-282.07,488.779C-282.442,489.335 -282.813,489.893 -283.185,490.451L-285.415,490.451C-285.601,489.893 -285.786,489.335 -285.973,488.779L-284.3,487.106ZM-284.857,361.122C-286.521,360.401 -285.526,361.146 -286.53,360.007C-284.866,360.728 -285.861,359.984 -284.857,361.122M-288.202,473.727C-292.087,488.341 -289.371,504.15 -289.874,520.553C-308.924,530.251 -337.691,523.581 -356.769,530.587L-358.441,530.587C-356.954,513.679 -355.468,496.767 -353.981,479.859C-354.167,472.799 -354.353,465.737 -354.539,458.676C-353.648,459.776 -353.782,459.437 -353.424,461.463C-347.646,464.729 -297.579,460.324 -287.645,459.234L-287.645,460.348C-287.645,460.348 -287.234,470.086 -288.202,473.727M-342.274,528.915C-341.903,528.729 -341.532,528.543 -341.16,528.358C-339.956,528.68 -342.274,528.915 -342.274,528.915M-348.407,533.375C-348.593,533.002 -348.778,532.631 -348.964,532.259L-347.85,532.259C-348.035,532.631 -348.222,533.002 -348.407,533.375M-361.229,502.714C-359.564,503.436 -360.56,502.691 -359.556,503.83C-360.113,503.458 -360.671,503.086 -361.229,502.714M-361.786,499.37C-361.6,498.999 -361.414,498.627 -361.229,498.255L-360.113,498.255C-359.056,499.812 -360.17,499.074 -361.786,499.37M-362.343,428.016C-361.972,428.202 -361.6,428.388 -361.229,428.574C-361.6,428.945 -361.972,429.317 -362.343,429.689L-362.343,428.016ZM-365.688,453.101C-366.06,453.473 -366.431,453.845 -366.803,454.216C-369.223,451.73 -374.881,442.91 -374.607,440.28C-370.536,441.231 -365.457,444.937 -363.458,448.085C-362.182,450.808 -363.434,452.151 -365.688,453.101M-364.573,504.387L-364.573,503.272C-364.064,504.264 -364.028,503.415 -364.573,504.387M-366.245,460.348C-366.431,459.977 -366.617,459.605 -366.803,459.234C-365.798,459.971 -366.481,459.831 -366.245,460.348M-368.476,648.767C-368.289,648.21 -368.104,647.652 -367.918,647.094C-367.829,648.555 -367.311,647.493 -368.476,648.767M-371.263,555.115C-371.448,554.744 -371.634,554.372 -371.819,554.001C-370.815,554.739 -371.499,554.597 -371.263,555.115M-372.377,584.102C-372.191,583.545 -372.006,582.988 -371.819,582.43C-371.361,583.802 -371.613,582.907 -372.377,584.102M-373.492,487.664C-373.678,487.292 -373.864,486.92 -374.05,486.548C-373.045,487.287 -373.729,487.146 -373.492,487.664M-373.492,496.025L-373.492,493.795C-373.307,494.539 -373.12,495.282 -372.935,496.025L-373.492,496.025ZM-375.165,612.533C-374.793,612.904 -374.421,613.276 -374.05,613.647C-375.108,612.866 -374.389,613.604 -375.165,612.533M-379.066,647.652L-379.066,646.538C-378.558,647.529 -378.522,646.679 -379.066,647.652M-381.297,604.17C-381.482,603.799 -381.668,603.427 -381.854,603.056C-380.796,602.275 -381.515,603.012 -380.739,601.941C-380.182,602.313 -379.624,602.684 -379.066,603.056C-379.253,603.427 -379.438,603.799 -379.624,604.17L-381.297,604.17ZM-381.854,523.34C-380.729,524.346 -381.441,523.328 -380.739,525.012L-381.854,525.012L-381.854,523.34ZM-380.182,417.982C-379.177,418.72 -379.86,418.58 -379.624,419.097C-379.81,418.725 -379.996,418.354 -380.182,417.982M-380.182,513.864C-380.367,513.492 -380.554,513.121 -380.739,512.749C-379.734,513.487 -380.418,513.346 -380.182,513.864M-379.066,533.375C-379.253,533.002 -379.438,532.631 -379.624,532.259C-378.62,532.998 -379.303,532.857 -379.066,533.375M-371.263,367.811C-371.634,368.555 -372.006,369.298 -372.377,370.042C-372.191,369.298 -372.006,368.555 -371.819,367.811L-371.263,367.811ZM-371.819,363.352C-371.263,363.723 -370.705,364.095 -370.147,364.467C-372.152,364.612 -370.78,365.073 -371.819,363.352M-356.769,497.698C-357.326,498.255 -357.884,498.813 -358.441,499.37C-358.255,498.255 -358.069,497.14 -357.884,496.025C-357.512,496.583 -357.141,497.14 -356.769,497.698M-352.31,455.889C-352.495,455.517 -352.681,455.145 -352.866,454.774C-351.862,455.512 -352.546,455.372 -352.31,455.889M-346.734,373.386C-346.921,373.014 -347.106,372.643 -347.292,372.271C-346.288,373.009 -346.971,372.869 -346.734,373.386M-324.994,361.679C-325.764,362.611 -326.264,362.666 -327.224,363.352L-328.339,362.237C-328.153,362.051 -327.967,361.866 -327.781,361.679L-324.994,361.679ZM-316.632,428.574C-318.296,427.853 -317.301,428.597 -318.305,427.459C-317.747,427.831 -317.189,428.202 -316.632,428.574M-305.483,432.476C-306.82,433.127 -306.214,433.858 -307.155,432.476L-305.483,432.476ZM-410.842,377.845C-411.399,378.217 -411.956,378.589 -412.514,378.96C-416.696,362.29 -412.188,339.52 -410.842,322.1C-401.913,319.579 -351.427,311.282 -347.292,307.049C-346.921,307.421 -346.549,307.793 -346.177,308.165C-346.638,309.717 -346.47,309.12 -345.62,310.394C-339.646,307.918 -307.062,309.095 -301.581,312.067L-300.466,312.067C-299.275,320.171 -306.931,332.448 -308.828,341.054C-308.642,345.699 -308.456,350.345 -308.271,354.99C-333.554,348.755 -398.369,357.952 -410.842,377.845M-393.003,449.756C-391.944,450.538 -392.664,449.8 -391.888,450.872C-392.26,450.501 -392.632,450.128 -393.003,449.756M-396.905,368.926C-396.72,368.555 -396.533,368.183 -396.348,367.811L-395.232,367.811C-396.238,368.937 -395.22,368.224 -396.905,368.926M-396.348,440.837L-397.463,441.953C-397.648,441.767 -397.834,441.581 -398.021,441.395C-397.834,441.024 -397.648,440.652 -397.463,440.28L-396.348,440.28L-396.348,440.837ZM-400.808,414.637C-400.436,415.009 -400.063,415.38 -399.692,415.752C-400.751,414.971 -400.031,415.71 -400.808,414.637M-374.607,130.895C-374.793,130.523 -374.979,130.151 -375.165,129.78C-374.16,130.518 -374.844,130.377 -374.607,130.895M-366.245,137.027L-365.688,139.256L-366.245,139.256L-366.245,137.027ZM-352.31,137.027L-351.194,137.027L-351.194,138.699L-351.752,138.699C-352.123,138.328 -352.495,137.956 -352.866,137.585C-352.681,137.398 -352.495,137.212 -352.31,137.027M-342.274,60.656C-342.461,60.284 -342.646,59.913 -342.832,59.541C-341.828,60.279 -342.511,60.139 -342.274,60.656M-334.471,123.09C-334.656,123.462 -334.843,123.834 -335.028,124.206C-335.214,123.834 -335.399,123.462 -335.586,123.09L-334.471,123.09ZM-333.355,298.688C-332.798,299.059 -332.241,299.431 -331.684,299.802L-331.684,300.36C-332.427,300.174 -333.17,299.989 -333.913,299.802C-333.728,299.431 -333.542,299.059 -333.355,298.688M-306.041,171.589C-307.099,170.808 -306.38,171.545 -307.155,170.474C-306.784,170.845 -306.412,171.217 -306.041,171.589M-302.139,126.993C-301.952,126.621 -301.767,126.25 -301.581,125.878C-301.833,126.495 -301.104,126.298 -302.139,126.993M-298.794,337.152C-298.979,336.78 -299.165,336.409 -299.352,336.037C-298.347,336.775 -299.03,336.634 -298.794,337.152M-297.121,457.003L-297.679,457.003C-297.864,456.26 -298.051,455.517 -298.236,454.774C-297.101,455.864 -297.63,454.968 -297.121,457.003M-294.892,289.211C-295.077,288.839 -295.263,288.467 -295.449,288.096C-294.444,288.835 -295.128,288.694 -294.892,289.211M-292.104,154.865C-292.476,154.494 -292.848,154.122 -293.22,153.751C-293.033,153.564 -292.848,153.378 -292.662,153.193C-292.104,153.378 -291.547,153.564 -290.989,153.751C-291.361,154.122 -291.732,154.494 -292.104,154.865M-291.547,343.841C-291.732,343.469 -291.919,343.098 -292.104,342.726C-291.1,343.464 -291.783,343.324 -291.547,343.841M-333.913,116.401C-322.905,103.806 -304.117,99.368 -294.334,85.184L-292.104,85.184C-290.989,98.004 -289.874,110.828 -288.76,123.648C-288.945,123.834 -289.132,124.02 -289.317,124.206C-302.882,122.688 -321.169,117.083 -333.913,116.959L-333.913,116.401ZM-330.568,48.392C-330.197,48.949 -329.825,49.507 -329.454,50.064L-330.568,50.064L-330.568,48.392ZM-320.534,103.022C-321.664,102.262 -321.441,102.407 -322.207,101.35C-321.649,101.907 -321.092,102.465 -320.534,103.022M-293.776,82.954C-293.269,83.946 -293.232,83.096 -293.776,84.069L-293.776,82.954ZM-283.743,482.089C-285.08,482.741 -284.474,483.471 -285.415,482.089L-283.743,482.089ZM-282.628,433.59C-283.965,434.243 -283.358,434.973 -284.3,433.59L-282.628,433.59ZM-283.743,143.716C-283.929,143.345 -284.114,142.973 -284.3,142.601C-283.296,143.339 -283.979,143.199 -283.743,143.716M-366.245,95.218L-366.245,94.103C-365.737,95.095 -365.701,94.245 -366.245,95.218M-73.583,52.852C-73.77,53.223 -73.955,53.595 -74.141,53.966C-74.327,53.595 -74.513,53.223 -74.698,52.852L-73.583,52.852ZM-72.469,94.661C-72.841,94.289 -73.212,93.917 -73.583,93.545C-72.525,94.327 -73.245,93.589 -72.469,94.661M-59.647,124.763C-61.312,124.042 -60.315,124.786 -61.319,123.648C-59.655,124.369 -60.651,123.625 -59.647,124.763M-52.4,181.623L-51.285,181.623L-52.958,182.738C-52.772,182.366 -52.586,181.995 -52.4,181.623M-51.285,174.376C-52.949,173.655 -51.954,174.399 -52.958,173.261C-51.294,173.982 -52.289,173.238 -51.285,174.376M-52.4,212.283L-50.728,212.283C-52.308,212.832 -50.995,213.19 -52.4,212.283M-48.498,216.743C-48.127,216.928 -47.755,217.114 -47.384,217.299L-47.384,217.857C-47.755,218.044 -48.127,218.229 -48.498,218.415C-48.685,218.044 -48.87,217.671 -49.056,217.299C-48.87,217.114 -48.685,216.928 -48.498,216.743M-45.153,200.577C-46.283,199.816 -46.061,199.961 -46.826,198.904C-45.778,199.679 -45.909,199.431 -45.153,200.577M10.034,382.96C12.072,379.348 14.879,368.795 12.264,362.892C10.251,358.662 -3.064,355.12 -6.132,355.088L-6.132,346.726C-1.13,349.362 2.803,353.035 9.477,353.973C9.849,353.788 10.22,353.601 10.592,353.416C10.777,352.301 10.963,351.186 11.149,350.071C6.726,347.189 -2.575,340.7 -6.689,343.381L-9.477,337.807C-13.806,335.31 -16.396,337.796 -22.855,336.692C-39.809,333.793 -57.122,331.227 -72.469,328.888C-71.726,325.358 -70.982,321.827 -70.239,318.296C-71.354,310.122 -72.469,301.944 -73.583,293.768L-73.583,292.654C-71.474,288.68 -67.21,287.315 -68.566,281.504C-69.923,275.694 -77.525,265.316 -75.256,256.977C-74.16,252.953 -71.019,253.157 -70.796,246.943C-76.742,247.314 -82.689,247.686 -88.635,248.057C-89.007,247.501 -89.378,246.943 -89.75,246.385C-70.161,244.027 -52.192,245.769 -34.005,241.925C-33.633,241.554 -33.261,241.182 -32.89,240.81C-33.792,227.664 -38.687,217.261 -41.251,206.806C-46.577,185.097 -44.645,163.746 -51.843,142.142C-58.201,123.058 -66.393,101.066 -70.239,79.707C-70.425,70.045 -70.61,60.381 -70.796,50.72C-71.685,45.732 -74.696,38.33 -73.026,31.766C-71.348,25.169 -67.33,17.895 -68.566,8.354C-69.728,-0.605 -77.927,-14.256 -75.256,-26.208C-73.77,-29.553 -72.282,-32.898 -70.796,-36.243C-68.675,-46.809 -71.554,-56.361 -73.026,-65.23C-73.77,-74.334 -74.513,-83.441 -75.256,-92.545C-79.299,-112.528 -87.481,-127.301 -97.554,-141.043C-102.53,-147.832 -111.077,-150.328 -117.064,-156.095C-122.356,-161.192 -123.508,-167.359 -133.23,-168.358C-135.149,-171.574 -134.31,-171.83 -133.23,-175.605C-137.058,-181.077 -141.759,-189.666 -148.282,-192.329C-162.63,-185.254 -177.771,-174.977 -188.419,-163.899L-187.304,-163.899C-192.85,-160.512 -209.356,-143.714 -215.733,-143.273C-213.491,-160.443 -178.964,-185.234 -165.006,-192.886C-160.437,-195.391 -152.377,-194.698 -147.725,-197.903C-141.646,-202.092 -145.848,-207.046 -142.708,-213.512C-141.796,-215.389 -138.396,-216.968 -137.69,-219.644C-136.291,-224.946 -139.816,-228.686 -138.248,-234.138C-139.177,-234.324 -140.106,-234.509 -141.035,-234.695C-140.106,-234.881 -139.177,-235.067 -138.248,-235.253C-139.369,-244.216 -141.629,-266.156 -145.495,-273.16C-147.5,-276.792 -158.058,-280.933 -154.414,-285.981C-154.042,-286.352 -153.671,-286.724 -153.299,-287.096C-155.102,-289.143 -155.887,-291.159 -158.316,-292.67C-161.103,-291.741 -163.891,-290.812 -166.678,-289.883C-167.804,-294.265 -169.036,-296.997 -174.482,-298.245C-173.739,-299.359 -172.995,-300.475 -172.253,-301.589L-172.81,-302.704C-181.396,-303.871 -188.357,-301.924 -195.665,-301.589C-198.081,-302.704 -200.497,-303.819 -202.912,-304.934C-208.167,-306.544 -216.251,-302.489 -220.193,-301.032L-220.751,-301.032C-219.463,-302.809 -218.793,-302.389 -217.964,-304.934C-229.784,-304.927 -232.2,-296.353 -238.031,-290.44C-240.928,-292.465 -241.474,-292.409 -246.394,-292.113C-248.954,-288.718 -253.535,-281.522 -254.198,-277.061C-255.312,-276.875 -256.428,-276.69 -257.542,-276.504C-256.925,-272.879 -255.831,-271.047 -254.198,-268.7C-256.53,-259.727 -261.574,-246.062 -265.904,-237.482C-267.982,-233.364 -262.997,-232.516 -264.789,-228.006C-267.448,-221.315 -273.519,-217.086 -276.496,-209.61C-274.18,-205.671 -273.205,-203.048 -267.576,-202.363C-267.205,-201.806 -266.833,-201.248 -266.462,-200.691C-268.319,-199.948 -270.179,-199.204 -272.036,-198.461C-275.295,-196.123 -276.229,-190.386 -275.938,-184.525C-273.709,-181.552 -271.479,-178.578 -269.249,-175.605C-268.487,-174.116 -269.183,-175.267 -267.576,-175.605C-266.525,-172.482 -266.925,-171.592 -267.576,-168.358C-266.462,-168.173 -265.347,-167.987 -264.231,-167.801C-265.368,-161.978 -283.155,-144.475 -269.807,-139.929C-268.696,-141.97 -270.069,-140.872 -267.576,-141.601C-266.985,-137.029 -263.778,-132.069 -261.444,-127.665C-260.888,-127.479 -260.329,-127.293 -259.772,-127.107C-254.307,-131.102 -246.998,-132.801 -243.049,-138.256C-242.306,-140.857 -241.562,-143.459 -240.819,-146.061C-238.96,-148.975 -234.312,-149.317 -232.457,-152.75C-227.998,-152.378 -223.537,-152.007 -219.078,-151.635L-219.078,-150.52C-218.707,-149.405 -218.335,-148.29 -217.964,-147.175C-218.149,-146.618 -218.335,-146.061 -218.521,-145.503C-222.461,-142.923 -226.808,-145.042 -231.899,-143.831C-235.43,-140.672 -238.961,-137.513 -242.491,-134.354C-241.909,-127.207 -242.396,-128.284 -245.836,-123.763C-244.839,-119.971 -242.81,-118.069 -240.819,-115.401C-244.33,-109.393 -251.504,-107.705 -256.428,-103.137C-255.936,-99.815 -254.852,-98.378 -253.083,-96.447C-255.127,-84.888 -267.764,-76.891 -272.036,-66.902C-280.862,-46.266 -278.224,-18.726 -287.645,-0.566C-290.137,4.237 -295.282,3.502 -299.352,6.681C-302.138,11.326 -304.926,15.972 -307.713,20.617C-311.411,25.374 -317.427,28.471 -322.765,31.766C-325.737,36.597 -328.711,41.429 -331.684,46.26C-334.511,50.203 -338.511,51.813 -341.718,55.179C-343.761,59.453 -345.806,63.727 -347.85,68.001C-350.011,71.178 -351.405,68.364 -354.539,69.673C-357.687,70.988 -373.28,89.908 -373.492,94.758C-369.438,100.441 -348.478,120.442 -349.521,124.303L-345.062,125.418L-345.062,125.976C-346.362,126.719 -347.664,127.462 -348.964,128.206C-353.189,127.845 -356.092,126.279 -358.445,124.2C-358.443,124.202 -358.442,124.203 -358.441,124.206C-358.447,124.199 -358.454,124.192 -358.46,124.186C-360.379,122.487 -361.935,120.449 -363.536,118.439C-363.511,118.501 -363.487,118.56 -363.458,118.631L-364.573,118.631L-364.573,117.16C-366.171,115.233 -367.901,113.411 -370.147,112.04C-370.333,112.225 -370.52,112.411 -370.705,112.597C-368.714,115.129 -364.811,117.904 -366.803,122.631C-368.209,124.648 -368.643,123.212 -371.263,124.303C-373.671,125.622 -374.056,127.143 -374.05,129.32C-376.567,129.11 -376.448,129.289 -378.509,130.435C-379.253,129.135 -379.996,127.834 -380.739,126.533C-382.85,127.877 -382.122,128.09 -381.854,131.55C-384.45,131.354 -383.321,130.454 -384.642,132.665C-387.355,131.557 -389.105,129.327 -390.216,126.533L-391.888,126.533C-391.702,128.02 -391.517,129.506 -391.331,130.993C-393.325,130.976 -392.741,130.574 -395.79,130.993C-395.976,129.506 -396.162,128.02 -396.348,126.533C-399.09,127.772 -398.625,127.522 -397.463,129.878C-398.392,130.435 -399.321,130.993 -400.25,131.55L-402.479,128.763L-404.152,131.55C-403.223,132.479 -402.294,133.408 -401.364,134.337C-397.463,133.78 -393.56,133.222 -389.658,132.665C-389.473,132.851 -389.286,133.037 -389.101,133.222L-389.101,134.895C-394.867,136.72 -399.339,134.268 -406.382,136.01C-413.983,137.89 -416.489,144.139 -425.335,144.372C-427.8,141.236 -429.404,140.069 -428.68,134.895C-425.472,133.476 -425.261,130.4 -421.99,128.763C-420.891,127.873 -421.229,128.007 -419.203,127.648C-418.274,129.32 -417.345,130.993 -416.416,132.665C-415.673,132.851 -414.93,133.037 -414.187,133.222C-414.93,130.807 -415.673,128.391 -416.416,125.976C-413.595,125.798 -409.92,123.422 -404.71,123.189C-403.966,121.331 -403.223,119.472 -402.479,117.614L-402.479,117.056L-405.824,117.056C-406.196,115.57 -406.567,114.083 -406.939,112.597L-408.054,112.04L-408.611,112.04C-408.626,116.384 -407.936,118.504 -406.382,120.959C-411.584,121.33 -416.788,121.702 -421.99,122.073C-422.177,121.702 -422.362,121.33 -422.548,120.959C-421.731,115.598 -418.433,112.535 -416.974,106.465C-406.014,103.354 -392.644,101.819 -380.182,101.448C-377.044,104.594 -375.566,108.277 -371.819,110.924L-371.263,110.924C-373.492,107.209 -375.722,103.491 -377.952,99.775C-376.466,98.846 -374.979,97.917 -373.492,96.988L-373.492,95.316C-378.37,96.241 -383.612,99.175 -387.429,100.333C-390.772,100.147 -394.118,99.961 -397.463,99.775C-405.362,100.817 -412.741,102.917 -419.203,104.793C-421.131,111.064 -426.609,117.653 -423.663,122.631C-436.016,125.707 -457.033,128.297 -466.587,137.682C-466.997,141.774 -446.682,179.283 -443.174,186.18C-435.352,201.561 -433.247,242.132 -430.353,265.896C-427.588,288.584 -428.479,322.123 -433.697,345.612C-435.622,354.28 -439.276,366.373 -437.599,376.271C-435.986,385.792 -433.929,393.386 -430.353,400.242C-431.646,401.741 -432.173,425.869 -431.467,429.787C-430.02,437.829 -424.624,444.309 -425.335,454.314C-427.396,483.294 -427.358,509.954 -432.024,537.932C-434.865,554.964 -432.608,568.127 -435.927,584.201C-438.342,595.348 -440.759,606.5 -443.174,617.647C-443.731,618.019 -444.288,618.391 -444.846,618.762C-450.605,611.516 -456.367,604.268 -462.127,597.022C-462.499,598.323 -462.87,599.624 -463.242,600.924L-467.701,597.022C-468.259,597.579 -468.816,598.137 -469.374,598.694C-464.543,605.383 -459.711,612.074 -454.88,618.762C-450.913,620.611 -447.244,619.724 -445.403,623.222L-445.403,628.239C-441.808,630.277 -433.81,628.922 -428.68,629.912C-428.521,607.911 -417.613,577.051 -411.956,556.885C-410.019,549.978 -412.148,545.015 -410.284,537.932C-404.49,515.92 -401.715,478.264 -400.25,453.756C-381.425,449.974 -379.806,486.017 -382.969,504.485C-391.33,553.293 -394.732,625.639 -383.526,675.065C-381.506,683.977 -382.489,695.25 -379.624,702.938C-373.906,703.9 -368.121,701.161 -364.016,700.708C-359.317,695.762 -365.071,666.015 -365.13,654.997C-365.321,619.549 -365.298,590.438 -361.229,560.788C-360.562,555.933 -362.794,549.652 -360.113,544.622C-357.796,541.271 -302.219,537.211 -291.547,540.719C-287.778,544.903 -290.39,555.677 -289.317,562.46C-287.155,576.126 -288.304,594.142 -283.185,607.056C-280.354,607.777 -273.806,608.499 -270.921,607.614C-265.333,601.367 -268.505,546.894 -267.576,539.046C-241.943,537.3 -221.591,531.21 -198.452,525.668C-188.02,523.169 -178.53,523.87 -170.58,520.093L-169.465,521.209C-169.279,529.383 -169.094,537.561 -168.907,545.736C-169.094,550.752 -169.279,555.771 -169.465,560.788C-168.351,574.165 -167.235,587.546 -166.12,600.924L-166.12,627.682C-171.286,631.503 -179.229,630.657 -181.729,637.159C-174.912,635.618 -173.741,634.698 -166.12,633.256C-165.339,634.315 -166.077,633.595 -165.006,634.371C-170.271,652.298 -205.479,668.143 -204.027,684.542C-206.628,684.913 -209.23,685.285 -211.831,685.657C-212.574,686.771 -213.318,687.886 -214.062,689.002C-213.504,689.93 -212.946,690.86 -212.389,691.789C-195.565,698.057 -141.823,694.052 -131.001,687.329C-124.994,683.597 -124.124,679.083 -120.409,672.835C-114.907,663.58 -102.441,666.292 -91.422,665.588C-88.362,660.952 -85.886,655.233 -84.732,649.98C-84.919,648.493 -85.104,647.006 -85.29,645.52C-84.098,642.685 -79.318,641.34 -78.043,637.715C-73.855,625.812 -77.505,607.453 -75.813,595.907C-69.979,556.08 -61.545,501.174 -71.354,459.889C-74.191,447.947 -71.313,436.414 -74.141,425.884C-73.77,425.512 -73.397,425.141 -73.026,424.769C-71.652,429.542 -66.8,434.711 -61.319,435.361C-57.831,430.107 -53.36,423.488 -49.056,418.637C-40.538,426.026 -35.445,438.085 -28.43,447.067C-28.616,447.997 -28.802,448.925 -28.987,449.855C-26.999,458.052 -30.861,466.44 -28.43,474.94C-27.13,478.841 -25.828,482.745 -24.528,486.646C-21.119,488.688 -20.731,487.711 -17.281,486.089C-17.839,487.204 -18.396,488.319 -18.953,489.434C-18.396,490.177 -17.839,490.92 -17.281,491.664C-16.353,491.478 -15.423,491.292 -14.493,491.106C-7.284,484.164 8.985,431.498 6.132,415.85C4.178,405.13 1.626,394.619 2.787,383.518C5.202,383.333 7.619,383.146 10.034,382.96" style="fill:rgb(172,119,144);fill-rule:nonzero;"/>
        </g>
        <g transform="matrix(1,0,0,1,1613.79,531.196)">
            <path d="M0,-1.48L0,-1.278C0.351,-0.856 0.695,-0.429 1.037,0C0.473,-1.404 1.078,-0.517 0,-1.48" style="fill:rgb(180,60,156);fill-rule:nonzero;"/>
        </g>
        <g transform="matrix(1,0,0,1,1618.81,536.957)">
            <path d="M0,-1.109L1.096,-0.013C1.101,-0.009 1.105,-0.005 1.11,0C0.343,-1.061 1.056,-0.329 0,-1.109" style="fill:rgb(180,60,156);fill-rule:nonzero;"/>
        </g>
        <g transform="matrix(1,0,0,1,1974.46,755.014)">
            <path d="M0,-1.203C-0.186,-0.832 -0.371,-0.46 -0.558,-0.089C0.271,-1.019 0.326,0 0,-1.203" style="fill:rgb(180,60,156);fill-rule:nonzero;"/>
        </g>
        <g transform="matrix(1,0,0,1,1824.51,1077.13)">
            <path d="M0,-1.115C-0.186,-0.743 -0.372,-0.372 -0.558,0L0.558,0C0.372,-0.372 0.186,-0.743 0,-1.115Z" style="fill:rgb(180,60,156);fill-rule:nonzero;stroke:white;stroke-width:1px;"/>
        </g>
        <g transform="matrix(-0.8,-0.6,-0.6,0.8,1814.54,1081.97)">
            <path d="M-1.165,-4.836C-1.016,-2.866 -0.868,-0.896 -0.719,1.073L-1.165,0.739C-1.797,-0.897 -2.428,-2.532 -3.06,-4.166C-1.488,-5.094 -2.669,-4.707 -1.165,-4.836" style="fill:rgb(180,60,156);fill-rule:nonzero;"/>
        </g>
        <g transform="matrix(1,0,0,1,1827.3,1079.36)">
            <path d="M0,-0.558C0.558,-0.371 1.115,-0.186 1.673,0C1.115,-0.186 0.558,-0.371 0,-0.558Z" style="fill:rgb(180,60,156);fill-rule:nonzero;stroke:white;stroke-width:1px;"/>
        </g>
        <g transform="matrix(-0.948627,0.316398,0.316398,0.948627,1842.6,1081.46)">
            <path d="M0.277,-1.718C0.513,-1.601 0.748,-1.483 0.983,-1.365C0.749,-0.895 0.512,-0.425 0.277,0.046L-0.78,-1.366L0.277,-1.718Z" style="fill:rgb(180,60,156);fill-rule:nonzero;"/>
        </g>
        <g transform="matrix(1,0,0,1,1612.12,1081.59)">
            <path d="M0,-0.558C0.371,-0.372 0.743,-0.187 1.114,0C0.743,-0.187 0.371,-0.372 0,-0.558Z" style="fill:rgb(180,60,156);fill-rule:nonzero;stroke:white;stroke-width:1px;"/>
        </g>
        <g transform="matrix(1,0,0,1,1798.87,1082.71)">
            <path d="M0,-0.558C0.371,-0.371 0.743,-0.186 1.114,0C0.743,-0.186 0.371,-0.371 0,-0.558Z" style="fill:rgb(180,60,156);fill-rule:nonzero;stroke:white;stroke-width:1px;"/>
        </g>
        <g transform="matrix(1,0,0,1,1787.16,1087.72)">
            <path d="M0,-0.558C0.372,-0.372 0.743,-0.186 1.115,0C0.743,-0.186 0.372,-0.372 0,-0.558Z" style="fill:rgb(180,60,156);fill-rule:nonzero;stroke:white;stroke-width:1px;"/>
        </g>
        <g transform="matrix(0,1,1,0,1603.65,1091.17)">
            <path d="M-0.663,-2.125L2.125,-2.125L2.125,-1.567L1.567,-1.01C-0.034,-1.722 0.563,-0.663 -0.663,-2.125" style="fill:rgb(180,60,156);fill-rule:nonzero;"/>
        </g>
        <g transform="matrix(1,0,0,1,1835.66,1093.3)">
            <path d="M0,-1.115C0.186,-0.743 0.371,-0.371 0.557,0C0.32,-0.517 1.004,-0.377 0,-1.115Z" style="fill:rgb(180,60,156);fill-rule:nonzero;stroke:white;stroke-width:1px;"/>
        </g>
    </g>
    <g transform="matrix(0.851189,-0.0954761,0.0954761,0.851189,415.504,632.803)">
        <text x="190.062px" y="368.212px" style="font-family:'BookAntiqua-Bold', 'Book Antiqua', serif;font-weight:700;font-size:330.005px;fill:rgb(172,119,144);">Kultur</text>
    </g>
</svg>
